#!OML:ASF H:\Pregnant\Project 1\Capture day 1\Session 1\femalepreg.ASF
:FULLY-SPECIFIED
:DEGREES
1121
root 5.83386 14.5664 29.5727 -158.54 173.964 -176.855
lowerback -21.7433 -0.28146 -0.706886
upperback -8.37377 -0.195867 0.22572
thorax 3.02992 -0.0661592 0.597873
lowerneck -21.5108 -1.66508 -0.670604
upperneck 33.638 -0.671323 -4.03251
head 15.4296 -0.960278 -1.72045
rclavicle -1.68967e-015 4.37326e-015
rhumerus -56.4119 -3.01232 -77.236
rradius 22.4644
rwrist -21.3018
rhand -15.7024 -17.7174
rfingers 7.12502
rthumb 10.4873 -47.4358
lclavicle -1.68967e-015 4.37326e-015
lhumerus -43.5682 -15.5876 91.1401
lradius 69.0144
lwrist 31.0188
lhand -27.4928 -16.4122
lfingers 7.12502
lthumb -0.896014 13.5657
rfemur -63.404 12.0752 13.8969
rtibia 45.8698
rfoot 2.6964 -18.6416
rtoes -5.8305
lfemur 4.78045 -13.2994 -26.764
ltibia 15.1228
lfoot 9.7688 -14.5518
ltoes -16.951
1122
root 5.83947 14.5287 29.7424 -158.894 174.811 -177.842
lowerback -21.7089 0.253321 0.543751
upperback -8.35745 0.234984 0.388416
thorax 3.02772 0.127069 0.161548
lowerneck -21.2954 -1.58358 -0.443836
upperneck 33.5203 -0.58989 -4.19166
head 15.3234 -0.918734 -1.80431
rclavicle 1.11816e-014 9.54166e-015
rhumerus -54.3618 -3.25762 -77.0908
rradius 22.0443
rwrist -19.8241
rhand -15.8363 -18.2598
rfingers 7.12502
rthumb 10.3581 -47.9847
lclavicle 1.11816e-014 9.54166e-015
lhumerus -44.5305 -14.2734 91.0077
lradius 65.4441
lwrist 31.2994
lhand -27.7839 -15.9276
lfingers 7.12502
lthumb -1.17724 14.0489
rfemur -63.1119 13.0112 15.2027
rtibia 46.706
rfoot 1.98162 -18.1813
rtoes -6.52596
lfemur 2.79751 -12.1766 -26.1467
ltibia 20.0966
lfoot 10.9713 -13.769
ltoes -15.0807
1123
root 5.84545 14.4927 29.9085 -159.209 175.678 -178.711
lowerback -21.6148 0.712166 1.66083
upperback -8.34983 0.595853 0.551637
thorax 2.99523 0.28758 -0.215184
lowerneck -21.0725 -1.47621 -0.210619
upperneck 33.3927 -0.482155 -4.32526
head 15.2125 -0.861521 -1.87301
rclavicle 6.90777e-015 3.97569e-015
rhumerus -52.3001 -3.50217 -76.9152
rradius 21.842
rwrist -18.0591
rhand -15.9626 -18.8757
rfingers 7.12502
rthumb 10.2362 -48.6066
lclavicle 6.90777e-015 3.97569e-015
lhumerus -45.3416 -12.787 90.7168
lradius 61.4164
lwrist 31.635
lhand -28.2814 -15.619
lfingers 7.12502
lthumb -1.65774 14.3543
rfemur -62.7492 13.9289 16.3763
rtibia 47.4529
rfoot 1.28902 -17.8348
rtoes -7.14589
lfemur 1.14644 -10.9715 -25.6027
ltibia 24.2995
lfoot 12.8547 -12.736
ltoes -12.3796
1124
root 5.85012 14.4617 30.0724 -159.488 176.502 -179.435
lowerback -21.4655 1.0704 2.60928
upperback -8.36418 0.864578 0.71072
thorax 2.91509 0.404345 -0.523013
lowerneck -20.8252 -1.35278 0.0129477
upperneck 33.2716 -0.35839 -4.42662
head 15.1008 -0.793973 -1.92337
rclavicle -2.48481e-015 -1.43125e-014
rhumerus -50.2386 -3.75172 -76.7506
rradius 21.8292
rwrist -16.1748
rhand -16.1646 -19.5247
rfingers 7.12502
rthumb 10.0414 -49.2652
lclavicle -2.48481e-015 -1.43125e-014
lhumerus -46.0067 -11.19 90.2729
lradius 56.9047
lwrist 32.1068
lhand -28.9694 -15.6821
lfingers 7.12502
lthumb -2.32219 14.285
rfemur -62.2891 14.763 17.4201
rtibia 48.107
rfoot 0.59166 -17.6081
rtoes -7.67301
lfemur -0.315466 -9.76193 -25.1263
ltibia 27.9855
lfoot 15.0819 -11.534
ltoes -8.93707
1125
root 5.8517 14.4402 30.2349 -159.751 177.227 -179.987
lowerback -21.2373 1.30799 3.35055
upperback -8.41655 1.02641 0.856539
thorax 2.75281 0.469615 -0.754108
lowerneck -20.5632 -1.20773 0.241316
upperneck 33.1889 -0.211295 -4.50387
head 15.0054 -0.712357 -1.96139
rclavicle 1.37161e-014 1.19271e-014
rhumerus -48.2643 -3.92528 -76.7096
rradius 22.114
rwrist -14.5092
rhand -16.5427 -20.2252
rfingers 7.12502
rthumb 9.67654 -49.983
lclavicle 1.37161e-014 1.19271e-014
lhumerus -46.5504 -9.54501 89.6862
lradius 51.9315
lwrist 32.8002
lhand -29.8075 -16.2804
lfingers 7.12502
lthumb -3.13154 13.6763
rfemur -61.7057 15.4532 18.3222
rtibia 48.6641
rfoot -0.136253 -17.4834
rtoes -8.03885
lfemur -1.66551 -8.6465 -24.731
ltibia 31.3028
lfoot 17.3713 -10.3606
ltoes -5.2722
1126
root 5.84941 14.4294 30.3969 -160.015 177.809 -180.351
lowerback -20.9482 1.41744 3.87046
upperback -8.49756 1.07482 0.978111
thorax 2.52379 0.480165 -0.913301
lowerneck -20.2698 -1.04581 0.460508
upperneck 33.1409 -0.0504435 -4.53497
head 14.9205 -0.619081 -1.97699
rclavicle -1.02374e-014 -1.82882e-014
rhumerus -46.4129 -3.93507 -76.8923
rradius 22.7627
rwrist -13.4416
rhand -17.2058 -20.9296
rfingers 7.12502
rthumb 9.03676 -50.716
lclavicle -1.02374e-014 -1.82882e-014
lhumerus -46.9669 -7.93958 88.9747
lradius 46.5539
lwrist 33.8078
lhand -30.7573 -17.5885
lfingers 7.12502
lthumb -4.04881 12.3528
rfemur -60.9928 15.9461 19.0802
rtibia 49.1284
rfoot -0.909728 -17.4201
rtoes -8.25848
lfemur -2.95797 -7.7092 -24.4317
ltibia 34.364
lfoot 19.5462 -9.46389
ltoes -2.03624
1127
root 5.84331 14.4293 30.5584 -160.275 178.224 -180.529
lowerback -20.615 1.40909 4.18111
upperback -8.6126 1.01972 1.06383
thorax 2.2296 0.440637 -1.01642
lowerneck -19.9202 -0.877257 0.676309
upperneck 33.1154 0.108853 -4.52617
head 14.8337 -0.52056 -1.97606
rclavicle -3.97569e-015 -9.54166e-015
rhumerus -44.7284 -3.74674 -77.3166
rradius 23.8079
rwrist -13.1988
rhand -18.1367 -21.6064
rfingers 7.12502
rthumb 8.13844 -51.4297
lclavicle -3.97569e-015 -9.54166e-015
lhumerus -47.2759 -6.44177 88.1605
lradius 40.8899
lwrist 35.1513
lhand -31.7412 -19.5672
lfingers 7.12502
lthumb -4.9988 10.3539
rfemur -60.1766 16.217 19.6926
rtibia 49.5046
rfoot -1.72455 -17.3979
rtoes -8.35677
lfemur -4.27401 -7.00741 -24.2353
ltibia 37.2824
lfoot 21.4948 -9.07351
ltoes 0.183356
1128
root 5.83352 14.4382 30.7189 -160.495 178.488 -180.554
lowerback -20.3001 1.30795 4.31607
upperback -8.75115 0.881189 1.11024
thorax 1.91399 0.361492 -1.07918
lowerneck -19.542 -0.712825 0.871121
upperneck 33.1119 0.249243 -4.45411
head 14.7503 -0.423317 -1.94954
rclavicle -2.98177e-016 -1.27222e-014
rhumerus -43.2151 -3.36726 -77.9585
rradius 25.2747
rwrist -13.8524
rhand -19.2391 -22.2125
rfingers 7.12502
rthumb 7.0744 -52.0743
lclavicle -2.98177e-016 -1.27222e-014
lhumerus -47.4874 -5.04922 87.2232
lradius 35.1284
lwrist 36.6903
lhand -32.6578 -21.9345
lfingers 7.12502
lthumb -5.88383 7.96378
rfemur -59.3291 16.2963 20.1658
rtibia 49.8004
rfoot -2.56109 -17.4037
rtoes -8.35153
lfemur -5.71382 -6.55077 -24.1267
ltibia 40.1537
lfoot 23.2063 -9.22076
ltoes 1.62474
1129
root 5.82064 14.4541 30.8778 -160.656 178.617 -180.489
lowerback -20.0431 1.14301 4.34
upperback -8.8999 0.679345 1.12899
thorax 1.61314 0.252787 -1.11961
lowerneck -19.1651 -0.56029 1.04476
upperneck 33.1237 0.361709 -4.326
head 14.6733 -0.332633 -1.9023
rclavicle -3.08116e-015 -7.95139e-016
rhumerus -41.905 -2.77475 -78.783
rradius 27.2307
rwrist -15.3737
rhand -20.3973 -22.703
rfingers 7.12502
rthumb 5.9563 -52.5993
lclavicle -3.08116e-015 -7.95139e-016
lhumerus -47.6968 -3.67349 86.1018
lradius 29.6296
lwrist 38.0986
lhand -33.4767 -24.4507
lfingers 7.12502
lthumb -6.67442 5.42416
rfemur -58.4915 16.2311 20.5458
rtibia 50.0143
rfoot -3.38636 -17.429
rtoes -8.29612
lfemur -7.34679 -6.31871 -24.0606
ltibia 43.06
lfoot 24.6515 -9.79638
ltoes 2.71358
1130
root 5.80562 14.4734 31.0341 -160.77 178.649 -180.416
lowerback -19.8498 0.950563 4.34213
upperback -9.03048 0.442195 1.13313
thorax 1.36232 0.127736 -1.16779
lowerneck -18.8679 -0.435323 1.21135
upperneck 33.1617 0.425271 -4.16328
head 14.6245 -0.259574 -1.85059
rclavicle -1.05356e-014 3.18055e-014
rhumerus -40.7436 -2.09788 -79.6752
rradius 29.6034
rwrist -17.4775
rhand -21.3559 -23.0489
rfingers 7.12502
rthumb 5.03067 -52.9691
lclavicle -1.05356e-014 3.18055e-014
lhumerus -48.0123 -2.13047 84.6586
lradius 24.8134
lwrist 38.7405
lhand -34.3611 -26.3532
lfingers 7.12502
lthumb -7.5281 3.49287
rfemur -57.667 16.082 20.9111
rtibia 50.1447
rfoot -4.16659 -17.4621
rtoes -8.27798
lfemur -9.17251 -6.25495 -23.975
ltibia 46.037
lfoot 25.8011 -10.5784
ltoes 4.08131
1131
root 5.7897 14.4942 31.1868 -160.857 178.616 -180.414
lowerback -19.6976 0.76038 4.40552
upperback -9.127 0.193739 1.14166
thorax 1.16777 -0.0032746 -1.24599
lowerneck -18.7048 -0.341029 1.39078
upperneck 33.2319 0.437847 -3.99539
head 14.6189 -0.207147 -1.81077
rclavicle 7.55382e-015 5.56597e-015
rhumerus -39.742 -1.32038 -80.6054
rradius 32.4171
rwrist -20.0122
rhand -22.0434 -23.3091
rfingers 7.12502
rthumb 4.3669 -53.2441
lclavicle 7.55382e-015 5.56597e-015
lhumerus -48.5462 -0.112337 82.6254
lradius 21.0048
lwrist 37.901
lhand -35.3763 -27.4734
lfingers 7.12502
lthumb -8.50796 2.3352
rfemur -56.8358 15.8998 21.3391
rtibia 50.1796
rfoot -4.88724 -17.4847
rtoes -8.31284
lfemur -11.1778 -6.31937 -23.809
ltibia 49.0974
lfoot 26.6232 -11.3256
ltoes 6.07074
1132
root 5.77408 14.513 31.3351 -160.948 178.547 -180.547
lowerback -19.5528 0.591872 4.59638
upperback -9.17552 -0.0510077 1.17268
thorax 1.02661 -0.134274 -1.36998
lowerneck -18.719 -0.271071 1.61257
upperneck 33.3386 0.406788 -3.85029
head 14.6687 -0.172492 -1.79843
rclavicle 8.94531e-015 -2.38542e-015
rhumerus -38.8187 -0.531497 -81.5017
rradius 35.5132
rwrist -22.7105
rhand -22.3788 -23.5131
rfingers 7.12502
rthumb 4.04302 -53.4544
lclavicle 8.94531e-015 -2.38542e-015
lhumerus -49.4197 2.46054 79.8819
lradius 18.4064
lwrist 35.2473
lhand -36.6729 -27.5613
lfingers 7.12502
lthumb -9.75909 2.19257
rfemur -55.9713 15.7214 21.8992
rtibia 50.1195
rfoot -5.5501 -17.4808
rtoes -8.37562
lfemur -13.2903 -6.44488 -23.5131
ltibia 52.2128
lfoot 27.0258 -11.9627
ltoes 8.18433
